<?xml version="1.0" encoding="UTF-8"?>
<svg id="logo" xmlns="http://www.w3.org/2000/svg" viewBox="0 0 460.38 496.11">
  <defs>
    <style>
      .cls-1 {
        stroke-width: 12px;
      }

      .cls-1, .cls-2, .cls-3, .cls-4, .cls-5, .cls-6, .cls-7 {
        stroke-miterlimit: 10;
      }

      .cls-1, .cls-2, .cls-3, .cls-4, .cls-6 {
        fill: none;
      }

      .cls-1, .cls-2, .cls-4, .cls-5, .cls-6, .cls-7 {
        stroke: #fff;
      }

      .cls-2 {
        stroke-width: 33px;
      }

      .cls-3 {
        stroke: #000;
        stroke-width: 38px;
      }

      .cls-4 {
        stroke-width: 15px;
      }

      .cls-5 {
        stroke-width: 3.25px;
      }

      .cls-6 {
        stroke-width: 12.04px;
      }

      .cls-7 {
        stroke-width: 8px;
      }
    </style>
  </defs>
  <path class="cls-7" d="m5.36,279.71l28.44-34.88c19.69,19.54,46.12,32.69,71.7,32.69,30.97,0,47.97-14.64,47.97-36.98,0-23.58-17.76-31.11-42.75-42.15l-37.62-17c-27.1-11.74-55.62-34.09-55.62-75.98,0-45.66,38.71-80.8,92.4-80.8,32.15,0,68.19,16.54,101.18,48.41l-32.51,34.2c-17.5-15.51-45.11-38.44-68.67-38.44-26.09,0-43.08,12.71-43.08,33.65,0,22.52,20.95,30.85,43.76,40.58l37.11,16.21c32.73,14.2,55.62,35.76,55.62,77.3,0,46.45-37.03,85.19-98.79,85.19-37.2,0-73.04-15.25-99.13-41.98Z"/>
  <g>
    <g id="body">
      <polygon points="426.28 250.44 305.83 136.17 295.85 146.7 225.23 79.7 188.38 118.55 259 185.54 249.49 195.56 369.93 309.83 384.9 294.05 410.93 318.75 437.29 290.96 411.26 266.27 426.28 250.44"/>
    </g>
    <g id="highlights">
      <line class="cls-4" x1="401.43" y1="255.52" x2="300.27" y2="158.46"/>
      <line class="cls-6" x1="423" y1="296.44" x2="405.38" y2="279.06"/>
      <line class="cls-1" x1="282.71" y1="155.25" x2="222.27" y2="97.08"/>
    </g>
  </g>
  <line class="cls-2" x1="426.61" y1="12.45" x2="362.26" y2="68.39"/>
  <path id="L" class="cls-3" d="m314.1,231.44c-10.51,28.35-24.79,70.01-38.62,122.58-19.84,75.42-17.12,90.99-13.01,100.15,9.39,20.95,31.27,20.12,87.98,20.65,42.3.4,79.22,1.31,109.32,2.3"/>
  <circle id="knob" class="cls-5" cx="307.72" cy="253.91" r="31.42"/>
</svg>